HIERARCHY
ROOT Hips
{
	OFFSET 0.000000 0.000000 0.000000 
	CHANNELS 6 Xposition Yposition Zposition Zrotation Yrotation Xrotation
	JOINT LeftUpLeg
	{
		OFFSET 1.363060 -1.794630 0.839290 
		CHANNELS 3 Zrotation Yrotation Xrotation
		JOINT LeftLeg
		{
			OFFSET 2.448110 -6.726130 0.000000 
			CHANNELS 3 Zrotation Yrotation Xrotation
			JOINT LeftFoot
			{
				OFFSET 2.562200 -7.039590 0.000000 
				CHANNELS 3 Zrotation Yrotation Xrotation
				JOINT LeftToeBase
				{
					OFFSET 0.157640 -0.433110 2.322550 
					CHANNELS 3 Zrotation Yrotation Xrotation
					End Site
					{
						OFFSET 0.000000 0.000000 0.000000 
					}
				}
			}
		}
	}
	JOINT RightUpLeg
	{
		OFFSET -1.305520 -1.794630 0.839290 
		CHANNELS 3 Zrotation Yrotation Xrotation
		JOINT RightLeg
		{
			OFFSET -2.542530 -6.985550 0.000000 
			CHANNELS 3 Zrotation Yrotation Xrotation
			JOINT RightFoot
			{
				OFFSET -2.568260 -7.056230 0.000000 
				CHANNELS 3 Zrotation Yrotation Xrotation
				JOINT RightToeBase
				{
					OFFSET -0.164730 -0.452590 2.363150 
					CHANNELS 3 Zrotation Yrotation Xrotation
					End Site
					{
						OFFSET 0.000000 0.000000 0.000000 
					}
				}
			}
		}
	}
	JOINT Spine
	{
		OFFSET 0.028270 2.035590 -0.193380 
		CHANNELS 3 Zrotation Yrotation Xrotation
		JOINT Spine1
		{
			OFFSET 0.056720 2.048850 -0.042750 
			CHANNELS 3 Zrotation Yrotation Xrotation
			JOINT Neck1
			{
				OFFSET -0.054170 1.746240 0.172020 
				CHANNELS 3 Zrotation Yrotation Xrotation
				JOINT Head
				{
					OFFSET 0.104070 1.761360 -0.123970 
					CHANNELS 3 Zrotation Yrotation Xrotation
					End Site
					{
						OFFSET 0.000000 0.000000 0.000000 
					}
				}
			}
			JOINT LeftArm
			{
				OFFSET 3.362410 1.200890 -0.311210 
				CHANNELS 3 Zrotation Yrotation Xrotation
				JOINT LeftForeArm
				{
					OFFSET 4.983000 -0.000000 -0.000000 
					CHANNELS 3 Zrotation Yrotation Xrotation
					JOINT LeftHand
					{
						OFFSET 3.483560 -0.000000 -0.000000 
						CHANNELS 3 Zrotation Yrotation Xrotation
						JOINT LeftHandIndex1
						{
							OFFSET 0.715260 -0.000000 -0.000000 
							CHANNELS 3 Zrotation Yrotation Xrotation
							End Site
							{
								OFFSET 0.000000 0.000000 0.000000 
							}
						}
					}
				}
			}
			JOINT RightArm
			{
				OFFSET -3.136600 1.374050 -0.404650 
				CHANNELS 3 Zrotation Yrotation Xrotation
				JOINT RightForeArm
				{
					OFFSET -5.241900 -0.000000 -0.000000 
					CHANNELS 3 Zrotation Yrotation Xrotation
					JOINT RightHand
					{
						OFFSET -3.444170 -0.000000 -0.000000 
						CHANNELS 3 Zrotation Yrotation Xrotation
						JOINT RightHandIndex1
						{
							OFFSET -0.622530 -0.000000 -0.000000 
							CHANNELS 3 Zrotation Yrotation Xrotation
							End Site
							{
								OFFSET 0.000000 0.000000 0.000000 
							}
						}
					}
				}
			}
		}
	}
}
MOTION
Frames: 7
Frame Time: 0.041667
4.921313 16.930629 11.250513 2.378231 -50.701553 101.807299 -16.418985 7.836262 -46.088029 6.253833 17.033244 44.118575 3.649290 7.348147 51.023593 0.606100 4.983200 13.860800 16.524925 6.200487 -46.091540 -6.174352 -19.158844 45.743654 0.402554 -16.483938 37.199760 -1.264500 -7.127800 20.094600 -0.869117 3.908036 -2.962120 -16.857295 3.785520 17.627512 4.192228 -4.182361 1.371099 2.594600 -1.454000 1.572700 50.497125 -13.169361 31.804690 16.330259 -16.134465 -2.472921 1.649068 -9.077923 -119.267379 -7.125000 0.000000 0.000000 -37.224200 10.035009 -88.500621 -0.049988 10.642422 -0.840389 5.823606 -5.668745 43.098816 7.125000 0.000000 0.000000 
4.996294 16.935687 11.223309 2.301407 -50.744165 101.619203 -16.905956 8.060237 -46.903088 6.884000 17.446933 45.885315 3.567234 7.103213 50.781625 0.583300 4.890300 13.596100 16.614396 6.606166 -47.110672 -6.908201 -19.746638 47.798845 0.375777 -16.381692 37.223032 -1.308100 -7.244900 20.443000 -0.874656 3.876879 -2.953195 -17.126564 3.776006 17.401628 4.279021 -4.241385 1.050060 2.557200 -1.483400 1.327900 49.680025 -13.324492 31.793666 16.245021 -16.058205 -2.490142 1.880007 -9.210386 -120.140977 -7.125000 0.000000 0.000000 -36.211052 9.885038 -88.706940 0.043390 10.206695 -0.843530 6.030282 -5.525679 43.268348 7.125000 0.000000 0.000000 
5.068352 16.944231 11.197903 2.285301 -50.769447 101.358600 -17.320307 8.258832 -47.665843 7.452585 17.808707 47.513872 3.562285 6.702967 50.755459 0.580100 4.877200 13.558600 16.673326 7.008330 -48.099165 -7.649137 -20.293679 49.767859 0.424385 -16.547069 37.159471 -1.340500 -7.330600 20.698500 -0.878532 3.810874 -2.943512 -17.415243 3.752089 17.163243 4.362344 -4.286211 0.699054 2.505000 -1.511400 1.060200 48.852398 -13.463945 31.676696 16.145790 -15.978029 -2.498447 2.038140 -9.368668 -121.106121 -7.125000 0.000000 0.000000 -35.187489 9.768955 -88.567835 0.079867 9.830877 -0.863774 6.260831 -5.343663 43.006805 7.125000 0.000000 0.000000 
5.138386 16.956035 11.173509 2.331705 -50.791175 101.020115 -17.672792 8.430610 -48.378770 7.961270 18.123008 48.997905 3.600814 6.216416 50.853296 0.575400 4.857800 13.503400 16.710562 7.399474 -49.047796 -8.373800 -20.789800 51.608692 0.530036 -16.938740 37.036816 -1.354400 -7.367100 20.807700 -0.863221 3.711365 -2.936817 -17.753616 3.711150 16.886668 4.476443 -4.307426 0.306681 2.457000 -1.533300 0.772200 49.278568 -13.802138 39.131148 16.064131 -15.394253 -2.496634 3.335543 -9.166905 -130.442687 -7.125000 0.000000 0.000000 -34.180490 9.732272 -88.277747 0.078017 9.514800 -0.898647 6.504644 -5.091244 42.380539 7.125000 0.000000 0.000000 
5.207072 16.971323 11.149227 2.422072 -50.790175 100.627289 -17.971308 8.574919 -49.052830 8.418814 18.397480 50.337324 3.658205 5.723969 51.017380 0.570100 4.835400 13.439600 16.734835 7.782201 -49.952836 -9.052602 -21.228263 53.275641 0.665573 -17.477065 36.891945 -1.349500 -7.354200 20.769100 -0.845062 3.571680 -2.932826 -18.086472 3.651336 16.624007 4.604679 -4.328450 -0.114895 2.428000 -1.555500 0.469000 49.641098 -14.389638 46.421606 15.677351 -14.499068 -2.380403 4.572211 -8.701701 -139.704029 -7.125000 0.000000 0.000000 -33.199903 9.767943 -87.707795 0.012531 9.287908 -0.960936 6.787482 -4.815416 41.169846 7.125000 0.000000 0.000000 
5.274746 16.990209 11.124833 2.531190 -50.767980 100.205292 -18.228383 8.698422 -49.701623 8.834215 18.637380 51.532434 3.706686 5.316714 51.170157 0.559700 4.791900 13.316100 16.743837 8.164979 -50.806145 -9.652361 -21.604222 54.722567 0.788882 -18.031889 36.786410 -1.327500 -7.296500 20.596900 -0.826366 3.401041 -2.933175 -18.404273 3.576103 16.382239 4.738797 -4.345166 -0.559539 2.411200 -1.577300 0.156300 49.848539 -15.208486 53.552175 14.982565 -13.244725 -2.151145 5.718736 -7.951998 -148.874195 -7.125000 0.000000 0.000000 -32.251023 9.897938 -86.831916 -0.129958 9.170982 -1.055549 7.111997 -4.401585 39.251385 7.125000 0.000000 0.000000 
5.341408 17.012242 11.100214 2.638769 -50.727444 99.773794 -18.455498 8.806861 -50.333933 9.211172 18.845600 52.579680 3.732959 5.047039 51.270739 0.549600 4.749300 13.195000 16.732415 8.555264 -51.595350 -10.149141 -21.916589 55.910336 0.880486 -18.531217 36.743388 -1.300300 -7.224200 20.381300 -0.810822 3.214663 -2.938912 -18.700951 3.490607 16.163047 4.879479 -4.375343 -1.018988 2.403700 -1.607800 -0.157800 49.815314 -16.224386 60.573286 13.976033 -11.568571 -1.818630 6.707963 -6.910725 -157.946433 -7.125000 0.000000 0.000000 -31.313508 10.139088 -85.537235 -0.372150 9.188301 -1.193587 7.448303 -3.794773 36.467038 7.125000 0.000000 0.000000 
